<svg width="510" height="149" viewBox="0 0 510 149" fill="none" xmlns="http://www.w3.org/2000/svg">
<mask id="path-1-outside-1_2_68" maskUnits="userSpaceOnUse" x="70.159" y="46.2211" width="233" height="80" fill="black">
<rect fill="white" x="70.159" y="46.2211" width="233" height="80"/>
<path d="M71.48 51.4938H90.4431L110.471 100.357H111.324L131.352 51.4938H150.315V124.221H135.4V76.8844H134.797L115.976 123.866H105.82L86.9985 76.7069H86.3948V124.221H71.48V51.4938ZM187.558 125.286C181.947 125.286 177.117 124.15 173.069 121.877C169.045 119.581 165.943 116.338 163.765 112.147C161.587 107.933 160.498 102.95 160.498 97.1969C160.498 91.5862 161.587 86.6619 163.765 82.4242C165.943 78.1865 169.009 74.884 172.963 72.5166C176.94 70.1491 181.604 68.9654 186.954 68.9654C190.553 68.9654 193.902 69.5454 197.004 70.7055C200.129 71.8418 202.851 73.5582 205.171 75.8546C207.515 78.151 209.338 81.0393 210.64 84.5194C211.942 87.9758 212.593 92.0241 212.593 96.6643V100.819H166.535V91.4441H198.353C198.353 89.2661 197.88 87.3366 196.933 85.6558C195.986 83.9749 194.672 82.661 192.991 81.714C191.334 80.7434 189.404 80.258 187.203 80.258C184.906 80.258 182.87 80.7907 181.095 81.856C179.343 82.8977 177.97 84.3063 176.975 86.0819C175.981 87.8338 175.472 89.7869 175.448 91.9413V100.855C175.448 103.553 175.946 105.885 176.94 107.85C177.958 109.815 179.39 111.33 181.237 112.396C183.083 113.461 185.273 113.994 187.806 113.994C189.487 113.994 191.026 113.757 192.423 113.284C193.82 112.81 195.015 112.1 196.009 111.153C197.004 110.206 197.761 109.046 198.282 107.673L212.274 108.596C211.563 111.958 210.108 114.893 207.906 117.403C205.728 119.889 202.911 121.83 199.454 123.227C196.021 124.6 192.056 125.286 187.558 125.286ZM242.565 125.109C238.422 125.109 234.67 124.044 231.308 121.913C227.97 119.759 225.318 116.598 223.353 112.431C221.412 108.241 220.441 103.104 220.441 97.0194C220.441 90.7694 221.447 85.5729 223.46 81.4299C225.472 77.2632 228.147 74.1501 231.485 72.0904C234.847 70.0071 238.528 68.9654 242.529 68.9654C245.583 68.9654 248.128 69.4863 250.164 70.5279C252.224 71.5459 253.881 72.8243 255.136 74.3631C256.414 75.8783 257.385 77.3698 258.048 78.8376H258.509V51.4938H273.602V124.221H258.687V115.485H258.048C257.338 117 256.331 118.504 255.029 119.995C253.751 121.463 252.082 122.682 250.022 123.653C247.986 124.624 245.5 125.109 242.565 125.109ZM247.359 113.071C249.797 113.071 251.857 112.408 253.538 111.082C255.242 109.732 256.545 107.85 257.444 105.436C258.367 103.021 258.829 100.192 258.829 96.9484C258.829 93.705 258.379 90.8878 257.48 88.4967C256.58 86.1056 255.278 84.259 253.573 82.9569C251.869 81.6548 249.797 81.0038 247.359 81.0038C244.873 81.0038 242.778 81.6785 241.073 83.0279C239.369 84.3773 238.079 86.2476 237.203 88.6387C236.327 91.0298 235.889 93.7997 235.889 96.9484C235.889 100.121 236.327 102.926 237.203 105.365C238.102 107.779 239.393 109.673 241.073 111.046C242.778 112.396 244.873 113.071 247.359 113.071ZM286.04 124.221V69.6756H301.168V124.221H286.04ZM293.639 62.6444C291.39 62.6444 289.461 61.8987 287.851 60.4072C286.265 58.892 285.471 57.0809 285.471 54.9739C285.471 52.8906 286.265 51.1032 287.851 49.6117C289.461 48.0966 291.39 47.339 293.639 47.339C295.888 47.339 297.806 48.0966 299.392 49.6117C301.002 51.1032 301.807 52.8906 301.807 54.9739C301.807 57.0809 301.002 58.892 299.392 60.4072C297.806 61.8987 295.888 62.6444 293.639 62.6444Z"/>
</mask>
<path d="M71.48 51.4938H90.4431L110.471 100.357H111.324L131.352 51.4938H150.315V124.221H135.4V76.8844H134.797L115.976 123.866H105.82L86.9985 76.7069H86.3948V124.221H71.48V51.4938ZM187.558 125.286C181.947 125.286 177.117 124.15 173.069 121.877C169.045 119.581 165.943 116.338 163.765 112.147C161.587 107.933 160.498 102.95 160.498 97.1969C160.498 91.5862 161.587 86.6619 163.765 82.4242C165.943 78.1865 169.009 74.884 172.963 72.5166C176.94 70.1491 181.604 68.9654 186.954 68.9654C190.553 68.9654 193.902 69.5454 197.004 70.7055C200.129 71.8418 202.851 73.5582 205.171 75.8546C207.515 78.151 209.338 81.0393 210.64 84.5194C211.942 87.9758 212.593 92.0241 212.593 96.6643V100.819H166.535V91.4441H198.353C198.353 89.2661 197.88 87.3366 196.933 85.6558C195.986 83.9749 194.672 82.661 192.991 81.714C191.334 80.7434 189.404 80.258 187.203 80.258C184.906 80.258 182.87 80.7907 181.095 81.856C179.343 82.8977 177.97 84.3063 176.975 86.0819C175.981 87.8338 175.472 89.7869 175.448 91.9413V100.855C175.448 103.553 175.946 105.885 176.94 107.85C177.958 109.815 179.39 111.33 181.237 112.396C183.083 113.461 185.273 113.994 187.806 113.994C189.487 113.994 191.026 113.757 192.423 113.284C193.82 112.81 195.015 112.1 196.009 111.153C197.004 110.206 197.761 109.046 198.282 107.673L212.274 108.596C211.563 111.958 210.108 114.893 207.906 117.403C205.728 119.889 202.911 121.83 199.454 123.227C196.021 124.6 192.056 125.286 187.558 125.286ZM242.565 125.109C238.422 125.109 234.67 124.044 231.308 121.913C227.97 119.759 225.318 116.598 223.353 112.431C221.412 108.241 220.441 103.104 220.441 97.0194C220.441 90.7694 221.447 85.5729 223.46 81.4299C225.472 77.2632 228.147 74.1501 231.485 72.0904C234.847 70.0071 238.528 68.9654 242.529 68.9654C245.583 68.9654 248.128 69.4863 250.164 70.5279C252.224 71.5459 253.881 72.8243 255.136 74.3631C256.414 75.8783 257.385 77.3698 258.048 78.8376H258.509V51.4938H273.602V124.221H258.687V115.485H258.048C257.338 117 256.331 118.504 255.029 119.995C253.751 121.463 252.082 122.682 250.022 123.653C247.986 124.624 245.5 125.109 242.565 125.109ZM247.359 113.071C249.797 113.071 251.857 112.408 253.538 111.082C255.242 109.732 256.545 107.85 257.444 105.436C258.367 103.021 258.829 100.192 258.829 96.9484C258.829 93.705 258.379 90.8878 257.48 88.4967C256.58 86.1056 255.278 84.259 253.573 82.9569C251.869 81.6548 249.797 81.0038 247.359 81.0038C244.873 81.0038 242.778 81.6785 241.073 83.0279C239.369 84.3773 238.079 86.2476 237.203 88.6387C236.327 91.0298 235.889 93.7997 235.889 96.9484C235.889 100.121 236.327 102.926 237.203 105.365C238.102 107.779 239.393 109.673 241.073 111.046C242.778 112.396 244.873 113.071 247.359 113.071ZM286.04 124.221V69.6756H301.168V124.221H286.04ZM293.639 62.6444C291.39 62.6444 289.461 61.8987 287.851 60.4072C286.265 58.892 285.471 57.0809 285.471 54.9739C285.471 52.8906 286.265 51.1032 287.851 49.6117C289.461 48.0966 291.39 47.339 293.639 47.339C295.888 47.339 297.806 48.0966 299.392 49.6117C301.002 51.1032 301.807 52.8906 301.807 54.9739C301.807 57.0809 301.002 58.892 299.392 60.4072C297.806 61.8987 295.888 62.6444 293.639 62.6444Z" fill="#006EBE"/>
<path d="M71.48 51.4938V50.7938H70.78V51.4938H71.48ZM90.4431 51.4938L91.0908 51.2283L90.9127 50.7938H90.4431V51.4938ZM110.471 100.357L109.824 100.623L110.002 101.057H110.471V100.357ZM111.324 100.357V101.057H111.793L111.971 100.623L111.324 100.357ZM131.352 51.4938V50.7938H130.883L130.704 51.2283L131.352 51.4938ZM150.315 51.4938H151.015V50.7938H150.315V51.4938ZM150.315 124.221V124.921H151.015V124.221H150.315ZM135.4 124.221H134.7V124.921H135.4V124.221ZM135.4 76.8844H136.1V76.1844H135.4V76.8844ZM134.797 76.8844V76.1844H134.323L134.147 76.6241L134.797 76.8844ZM115.976 123.866V124.566H116.449L116.626 124.126L115.976 123.866ZM105.82 123.866L105.169 124.125L105.345 124.566H105.82V123.866ZM86.9985 76.7069L87.6486 76.4474L87.4728 76.0069H86.9985V76.7069ZM86.3948 76.7069V76.0069H85.6948V76.7069H86.3948ZM86.3948 124.221V124.921H87.0948V124.221H86.3948ZM71.48 124.221H70.78V124.921H71.48V124.221ZM71.48 52.1938H90.4431V50.7938H71.48V52.1938ZM89.7954 51.7593L109.824 100.623L111.119 100.092L91.0908 51.2283L89.7954 51.7593ZM110.471 101.057H111.324V99.6575H110.471V101.057ZM111.971 100.623L132 51.7593L130.704 51.2283L110.676 100.092L111.971 100.623ZM131.352 52.1938H150.315V50.7938H131.352V52.1938ZM149.615 51.4938V124.221H151.015V51.4938H149.615ZM150.315 123.521H135.4V124.921H150.315V123.521ZM136.1 124.221V76.8844H134.7V124.221H136.1ZM135.4 76.1844H134.797V77.5844H135.4V76.1844ZM134.147 76.6241L115.326 123.606L116.626 124.126L135.447 77.1448L134.147 76.6241ZM115.976 123.166H105.82V124.566H115.976V123.166ZM106.47 123.607L87.6486 76.4474L86.3483 76.9664L105.169 124.125L106.47 123.607ZM86.9985 76.0069H86.3948V77.4069H86.9985V76.0069ZM85.6948 76.7069V124.221H87.0948V76.7069H85.6948ZM86.3948 123.521H71.48V124.921H86.3948V123.521ZM72.18 124.221V51.4938H70.78V124.221H72.18ZM173.069 121.877L172.722 122.485L172.726 122.488L173.069 121.877ZM163.765 112.147L163.143 112.469L163.144 112.47L163.765 112.147ZM163.765 82.4242L163.143 82.1042L163.143 82.1042L163.765 82.4242ZM172.963 72.5166L172.605 71.915L172.603 71.916L172.963 72.5166ZM197.004 70.7055L196.759 71.3611L196.765 71.3633L197.004 70.7055ZM205.171 75.8546L204.679 76.3521L204.682 76.3546L205.171 75.8546ZM210.64 84.5194L209.985 84.7647L209.985 84.7662L210.64 84.5194ZM212.593 100.819V101.519H213.293V100.819H212.593ZM166.535 100.819H165.835V101.519H166.535V100.819ZM166.535 91.4441V90.7441H165.835V91.4441H166.535ZM198.353 91.4441V92.1441H199.053V91.4441H198.353ZM196.933 85.6558L196.323 85.9993L196.323 85.9994L196.933 85.6558ZM192.991 81.714L192.637 82.3181L192.647 82.3239L192.991 81.714ZM181.095 81.856L181.452 82.4577L181.455 82.4563L181.095 81.856ZM176.975 86.0819L177.584 86.4274L177.586 86.4239L176.975 86.0819ZM175.448 91.9413L174.748 91.9336V91.9413H175.448ZM176.94 107.85L176.315 108.166L176.318 108.172L176.94 107.85ZM192.423 113.284L192.198 112.621L192.198 112.621L192.423 113.284ZM196.009 111.153L195.527 110.646L195.527 110.646L196.009 111.153ZM198.282 107.673L198.328 106.974L197.811 106.94L197.628 107.425L198.282 107.673ZM212.274 108.596L212.959 108.741L213.125 107.951L212.32 107.898L212.274 108.596ZM207.906 117.403L207.38 116.941L207.379 116.942L207.906 117.403ZM199.454 123.227L199.714 123.877L199.716 123.876L199.454 123.227ZM187.558 124.586C182.042 124.586 177.336 123.47 173.412 121.267L172.726 122.488C176.899 124.83 181.852 125.986 187.558 125.986V124.586ZM173.416 121.269C169.511 119.041 166.503 115.898 164.386 111.824L163.144 112.47C165.383 116.777 168.578 120.121 172.722 122.485L173.416 121.269ZM164.387 111.826C162.27 107.73 161.198 102.861 161.198 97.1969H159.798C159.798 103.038 160.904 108.136 163.143 112.469L164.387 111.826ZM161.198 97.1969C161.198 91.6777 162.269 86.8667 164.388 82.7442L163.143 82.1042C160.905 86.4571 159.798 91.4946 159.798 97.1969H161.198ZM164.388 82.7442C166.508 78.6186 169.485 75.415 173.322 73.1171L172.603 71.916C168.533 74.3529 165.378 77.7545 163.143 82.1042L164.388 82.7442ZM173.321 73.1181C177.174 70.8246 181.71 69.6654 186.954 69.6654V68.2654C181.498 68.2654 176.706 69.4737 172.605 71.915L173.321 73.1181ZM186.954 69.6654C190.476 69.6654 193.742 70.2329 196.759 71.3611L197.249 70.0498C194.063 68.858 190.629 68.2654 186.954 68.2654V69.6654ZM196.765 71.3633C199.796 72.4658 202.432 74.1282 204.679 76.3521L205.664 75.3571C203.271 72.9883 200.461 71.2179 197.243 70.0476L196.765 71.3633ZM204.682 76.3546C206.943 78.5703 208.714 81.3678 209.985 84.7647L211.296 84.2741C209.963 80.7107 208.087 77.7317 205.661 75.3546L204.682 76.3546ZM209.985 84.7662C211.251 88.1264 211.893 92.0877 211.893 96.6643H213.293C213.293 91.9606 212.634 87.8253 211.295 84.2726L209.985 84.7662ZM211.893 96.6643V100.819H213.293V96.6643H211.893ZM212.593 100.119H166.535V101.519H212.593V100.119ZM167.235 100.819V91.4441H165.835V100.819H167.235ZM166.535 92.1441H198.353V90.7441H166.535V92.1441ZM199.053 91.4441C199.053 89.1615 198.556 87.1109 197.543 85.3122L196.323 85.9994C197.204 87.5624 197.653 89.3707 197.653 91.4441H199.053ZM197.543 85.3122C196.533 83.5199 195.127 82.1139 193.335 81.1041L192.647 82.3239C194.217 83.2081 195.439 84.4299 196.323 85.9993L197.543 85.3122ZM193.345 81.11C191.565 80.0677 189.51 79.558 187.203 79.558V80.958C189.299 80.958 191.102 81.419 192.637 82.318L193.345 81.11ZM187.203 79.558C184.794 79.558 182.631 80.1182 180.735 81.2558L181.455 82.4563C183.11 81.4632 185.019 80.958 187.203 80.958V79.558ZM180.737 81.2544C178.88 82.3588 177.419 83.8569 176.365 85.7399L177.586 86.4239C178.52 84.7558 179.806 83.4367 181.452 82.4577L180.737 81.2544ZM176.367 85.7364C175.31 87.5985 174.773 89.6692 174.748 91.9336L176.148 91.949C176.171 89.9046 176.652 88.0691 177.584 86.4274L176.367 85.7364ZM174.748 91.9413V100.855H176.148V91.9413H174.748ZM174.748 100.855C174.748 103.639 175.261 106.084 176.315 108.166L177.564 107.534C176.63 105.687 176.148 103.468 176.148 100.855H174.748ZM176.318 108.172C177.395 110.251 178.92 111.867 180.887 113.002L181.587 111.789C179.86 110.794 178.52 109.379 177.561 107.528L176.318 108.172ZM180.887 113.002C182.858 114.139 185.174 114.694 187.806 114.694V113.294C185.373 113.294 183.308 112.783 181.587 111.789L180.887 113.002ZM187.806 114.694C189.553 114.694 191.169 114.448 192.648 113.947L192.198 112.621C190.883 113.066 189.421 113.294 187.806 113.294V114.694ZM192.648 113.947C194.133 113.443 195.419 112.682 196.492 111.66L195.527 110.646C194.611 111.518 193.506 112.177 192.198 112.621L192.648 113.947ZM196.492 111.66C197.568 110.636 198.381 109.385 198.937 107.921L197.628 107.425C197.141 108.707 196.44 109.776 195.527 110.646L196.492 111.66ZM198.236 108.371L212.228 109.295L212.32 107.898L198.328 106.974L198.236 108.371ZM211.589 108.451C210.903 111.699 209.5 114.525 207.38 116.941L208.432 117.865C210.715 115.262 212.224 112.216 212.959 108.741L211.589 108.451ZM207.379 116.942C205.282 119.335 202.56 121.217 199.192 122.578L199.716 123.876C203.261 122.443 206.173 120.442 208.432 117.864L207.379 116.942ZM199.194 122.577C195.86 123.911 191.986 124.586 187.558 124.586V125.986C192.126 125.986 196.183 125.289 199.714 123.877L199.194 122.577ZM231.308 121.913L230.928 122.501L230.933 122.504L231.308 121.913ZM223.353 112.431L222.718 112.726L222.72 112.73L223.353 112.431ZM223.46 81.4299L224.089 81.7357L224.09 81.7343L223.46 81.4299ZM231.485 72.0904L231.853 72.6861L231.854 72.6854L231.485 72.0904ZM250.164 70.5279L249.845 71.1512L249.854 71.1555L250.164 70.5279ZM255.136 74.3631L254.593 74.8056L254.601 74.8146L255.136 74.3631ZM258.048 78.8376L257.41 79.1257L257.596 79.5376H258.048V78.8376ZM258.509 78.8376V79.5376H259.209V78.8376H258.509ZM258.509 51.4938V50.7938H257.809V51.4938H258.509ZM273.602 51.4938H274.302V50.7938H273.602V51.4938ZM273.602 124.221V124.921H274.302V124.221H273.602ZM258.687 124.221H257.987V124.921H258.687V124.221ZM258.687 115.485H259.387V114.785H258.687V115.485ZM258.048 115.485V114.785H257.603L257.414 115.188L258.048 115.485ZM255.029 119.995L254.502 119.535L254.502 119.536L255.029 119.995ZM250.022 123.653L249.724 123.02L249.721 123.021L250.022 123.653ZM253.538 111.082L253.971 111.632L253.972 111.631L253.538 111.082ZM257.444 105.436L256.79 105.186L256.788 105.191L257.444 105.436ZM257.48 88.4967L258.135 88.2502L258.135 88.2502L257.48 88.4967ZM241.073 83.0279L240.639 82.4791L240.639 82.4791L241.073 83.0279ZM237.203 105.365L236.544 105.601L236.547 105.609L237.203 105.365ZM241.073 111.046L240.631 111.589L240.639 111.595L241.073 111.046ZM242.565 124.409C238.549 124.409 234.927 123.378 231.683 121.322L230.933 122.504C234.412 124.709 238.295 125.809 242.565 125.809V124.409ZM231.687 121.325C228.476 119.252 225.905 116.2 223.986 112.133L222.72 112.73C224.732 116.996 227.464 120.265 230.928 122.501L231.687 121.325ZM223.988 112.137C222.101 108.063 221.141 103.033 221.141 97.0194H219.741C219.741 103.174 220.723 108.419 222.718 112.726L223.988 112.137ZM221.141 97.0194C221.141 90.8395 222.137 85.7557 224.089 81.7357L222.83 81.1241C220.758 85.3901 219.741 90.6993 219.741 97.0194H221.141ZM224.09 81.7343C226.055 77.6659 228.648 74.664 231.853 72.6861L231.118 71.4947C227.647 73.6362 224.889 76.8606 222.829 81.1255L224.09 81.7343ZM231.854 72.6854C235.104 70.6716 238.657 69.6654 242.529 69.6654V68.2654C238.4 68.2654 234.59 69.3426 231.117 71.4954L231.854 72.6854ZM242.529 69.6654C245.508 69.6654 247.936 70.174 249.845 71.1511L250.483 69.9047C248.321 68.7985 245.659 68.2654 242.529 68.2654V69.6654ZM249.854 71.1555C251.838 72.136 253.411 73.3556 254.593 74.8055L255.678 73.9208C254.351 72.293 252.61 70.9558 250.474 69.9004L249.854 71.1555ZM254.601 74.8146C255.847 76.2912 256.779 77.7285 257.41 79.1257L258.686 78.5495C257.991 77.011 256.982 75.4654 255.671 73.9117L254.601 74.8146ZM258.048 79.5376H258.509V78.1376H258.048V79.5376ZM259.209 78.8376V51.4938H257.809V78.8376H259.209ZM258.509 52.1938H273.602V50.7938H258.509V52.1938ZM272.902 51.4938V124.221H274.302V51.4938H272.902ZM273.602 123.521H258.687V124.921H273.602V123.521ZM259.387 124.221V115.485H257.987V124.221H259.387ZM258.687 114.785H258.048V116.185H258.687V114.785ZM257.414 115.188C256.736 116.635 255.769 118.084 254.502 119.535L255.557 120.456C256.894 118.924 257.939 117.366 258.682 115.782L257.414 115.188ZM254.502 119.536C253.297 120.919 251.711 122.083 249.724 123.02L250.321 124.286C252.453 123.281 254.205 122.007 255.557 120.455L254.502 119.536ZM249.721 123.021C247.803 123.935 245.426 124.409 242.565 124.409V125.809C245.575 125.809 248.17 125.312 250.324 124.285L249.721 123.021ZM247.359 113.771C249.932 113.771 252.15 113.068 253.971 111.632L253.104 110.532C251.564 111.747 249.663 112.371 247.359 112.371V113.771ZM253.972 111.631C255.794 110.188 257.164 108.192 258.1 105.68L256.788 105.191C255.925 107.509 254.69 109.277 253.103 110.533L253.972 111.631ZM258.098 105.686C259.058 103.174 259.529 100.256 259.529 96.9484H258.129C258.129 100.127 257.676 102.868 256.79 105.186L258.098 105.686ZM259.529 96.9484C259.529 93.6425 259.071 90.7381 258.135 88.2502L256.825 88.7432C257.688 91.0374 258.129 93.7675 258.129 96.9484H259.529ZM258.135 88.2502C257.198 85.76 255.826 83.7964 253.998 82.4006L253.148 83.5132C254.73 84.7215 255.962 86.4511 256.825 88.7432L258.135 88.2502ZM253.998 82.4006C252.155 80.9928 249.929 80.3038 247.359 80.3038V81.7038C249.666 81.7038 251.582 82.3168 253.148 83.5132L253.998 82.4006ZM247.359 80.3038C244.739 80.3038 242.485 81.018 240.639 82.4791L241.508 83.5767C243.071 82.339 245.007 81.7038 247.359 81.7038V80.3038ZM240.639 82.4791C238.817 83.9215 237.458 85.9066 236.545 88.3979L237.86 88.8795C238.699 86.5886 239.921 84.8331 241.508 83.5767L240.639 82.4791ZM236.545 88.3979C235.635 90.882 235.189 93.7363 235.189 96.9484H236.589C236.589 93.8631 237.018 91.1777 237.86 88.8795L236.545 88.3979ZM235.189 96.9484C235.189 100.184 235.635 103.072 236.544 105.601L237.861 105.128C237.018 102.78 236.589 100.058 236.589 96.9484H235.189ZM236.547 105.609C237.482 108.118 238.837 110.123 240.631 111.588L241.516 110.504C239.948 109.223 238.723 107.44 237.859 105.12L236.547 105.609ZM240.639 111.595C242.485 113.056 244.739 113.771 247.359 113.771V112.371C245.007 112.371 243.071 111.735 241.508 110.498L240.639 111.595ZM286.04 124.221H285.34V124.921H286.04V124.221ZM286.04 69.6756V68.9756H285.34V69.6756H286.04ZM301.168 69.6756H301.868V68.9756H301.168V69.6756ZM301.168 124.221V124.921H301.868V124.221H301.168ZM287.851 60.4072L287.367 60.9134L287.375 60.9207L287.851 60.4072ZM287.851 49.6117L288.33 50.1217L288.331 50.1215L287.851 49.6117ZM299.392 49.6117L298.908 50.118L298.916 50.1252L299.392 49.6117ZM299.392 60.4072L299.871 60.9171L299.872 60.9169L299.392 60.4072ZM286.74 124.221V69.6756H285.34V124.221H286.74ZM286.04 70.3756H301.168V68.9756H286.04V70.3756ZM300.468 69.6756V124.221H301.868V69.6756H300.468ZM301.168 123.521H286.04V124.921H301.168V123.521ZM293.639 61.9444C291.562 61.9444 289.803 61.262 288.326 59.8937L287.375 60.9207C289.118 62.5353 291.218 63.3444 293.639 63.3444V61.9444ZM288.334 59.901C286.88 58.5118 286.171 56.8811 286.171 54.9739H284.771C284.771 57.2808 285.649 59.2722 287.367 60.9134L288.334 59.901ZM286.171 54.9739C286.171 53.0933 286.878 51.4876 288.33 50.1217L287.371 49.1018C285.652 50.7188 284.771 52.6879 284.771 54.9739H286.171ZM288.331 50.1215C289.808 48.7309 291.565 48.039 293.639 48.039V46.639C291.215 46.639 289.113 47.4623 287.371 49.102L288.331 50.1215ZM293.639 48.039C295.713 48.039 297.456 48.7306 298.908 50.1179L299.875 49.1055C298.155 47.4625 296.063 46.639 293.639 46.639V48.039ZM298.916 50.1252C300.392 51.4922 301.107 53.0969 301.107 54.9739H302.507C302.507 52.6843 301.612 50.7142 299.868 49.0982L298.916 50.1252ZM301.107 54.9739C301.107 56.8775 300.389 58.5072 298.912 59.8974L299.872 60.9169C301.614 59.2768 302.507 57.2844 302.507 54.9739H301.107ZM298.912 59.8972C297.461 61.2622 295.716 61.9444 293.639 61.9444V63.3444C296.06 63.3444 298.151 62.5351 299.871 60.9171L298.912 59.8972Z" fill="white" mask="url(#path-1-outside-1_2_68)"/>
<mask id="path-3-outside-2_2_68" maskUnits="userSpaceOnUse" x="313.159" y="50.2211" width="193" height="76" fill="black">
<rect fill="white" x="313.159" y="50.2211" width="193" height="76"/>
<path d="M314.48 124.221V51.4938H329.856V81.5009H361.071V51.4938H376.412V124.221H361.071V94.1785H329.856V124.221H314.48ZM423.784 100.997V69.6756H438.912V124.221H424.388V114.313H423.82C422.588 117.509 420.541 120.078 417.676 122.019C414.835 123.961 411.367 124.931 407.271 124.931C403.625 124.931 400.418 124.103 397.648 122.446C394.878 120.788 392.712 118.433 391.149 115.379C389.61 112.325 388.829 108.667 388.805 104.406V69.6756H403.933V101.707C403.957 104.927 404.821 107.472 406.525 109.342C408.23 111.212 410.515 112.147 413.379 112.147C415.202 112.147 416.907 111.733 418.493 110.904C420.079 110.052 421.357 108.797 422.328 107.14C423.322 105.483 423.808 103.435 423.784 100.997ZM451.296 124.221V51.4938H466.424V78.8376H466.886C467.549 77.3698 468.508 75.8783 469.762 74.3631C471.041 72.8243 472.698 71.5459 474.734 70.5279C476.794 69.4863 479.35 68.9654 482.404 68.9654C486.382 68.9654 490.051 70.0071 493.413 72.0904C496.775 74.1501 499.462 77.2632 501.474 81.4299C503.486 85.5729 504.492 90.7694 504.492 97.0194C504.492 103.104 503.51 108.241 501.545 112.431C499.604 116.598 496.952 119.759 493.59 121.913C490.252 124.044 486.512 125.109 482.369 125.109C479.433 125.109 476.936 124.624 474.876 123.653C472.84 122.682 471.171 121.463 469.869 119.995C468.567 118.504 467.572 117 466.886 115.485H466.211V124.221H451.296ZM466.105 96.9484C466.105 100.192 466.554 103.021 467.454 105.436C468.354 107.85 469.656 109.732 471.36 111.082C473.065 112.408 475.136 113.071 477.575 113.071C480.037 113.071 482.12 112.396 483.825 111.046C485.529 109.673 486.82 107.779 487.696 105.365C488.595 102.926 489.045 100.121 489.045 96.9484C489.045 93.7997 488.607 91.0298 487.731 88.6387C486.855 86.2476 485.565 84.3773 483.86 83.0279C482.156 81.6785 480.061 81.0038 477.575 81.0038C475.113 81.0038 473.029 81.6548 471.325 82.9569C469.644 84.259 468.354 86.1056 467.454 88.4967C466.554 90.8878 466.105 93.705 466.105 96.9484Z"/>
</mask>
<path d="M314.48 124.221V51.4938H329.856V81.5009H361.071V51.4938H376.412V124.221H361.071V94.1785H329.856V124.221H314.48ZM423.784 100.997V69.6756H438.912V124.221H424.388V114.313H423.82C422.588 117.509 420.541 120.078 417.676 122.019C414.835 123.961 411.367 124.931 407.271 124.931C403.625 124.931 400.418 124.103 397.648 122.446C394.878 120.788 392.712 118.433 391.149 115.379C389.61 112.325 388.829 108.667 388.805 104.406V69.6756H403.933V101.707C403.957 104.927 404.821 107.472 406.525 109.342C408.23 111.212 410.515 112.147 413.379 112.147C415.202 112.147 416.907 111.733 418.493 110.904C420.079 110.052 421.357 108.797 422.328 107.14C423.322 105.483 423.808 103.435 423.784 100.997ZM451.296 124.221V51.4938H466.424V78.8376H466.886C467.549 77.3698 468.508 75.8783 469.762 74.3631C471.041 72.8243 472.698 71.5459 474.734 70.5279C476.794 69.4863 479.35 68.9654 482.404 68.9654C486.382 68.9654 490.051 70.0071 493.413 72.0904C496.775 74.1501 499.462 77.2632 501.474 81.4299C503.486 85.5729 504.492 90.7694 504.492 97.0194C504.492 103.104 503.51 108.241 501.545 112.431C499.604 116.598 496.952 119.759 493.59 121.913C490.252 124.044 486.512 125.109 482.369 125.109C479.433 125.109 476.936 124.624 474.876 123.653C472.84 122.682 471.171 121.463 469.869 119.995C468.567 118.504 467.572 117 466.886 115.485H466.211V124.221H451.296ZM466.105 96.9484C466.105 100.192 466.554 103.021 467.454 105.436C468.354 107.85 469.656 109.732 471.36 111.082C473.065 112.408 475.136 113.071 477.575 113.071C480.037 113.071 482.12 112.396 483.825 111.046C485.529 109.673 486.82 107.779 487.696 105.365C488.595 102.926 489.045 100.121 489.045 96.9484C489.045 93.7997 488.607 91.0298 487.731 88.6387C486.855 86.2476 485.565 84.3773 483.86 83.0279C482.156 81.6785 480.061 81.0038 477.575 81.0038C475.113 81.0038 473.029 81.6548 471.325 82.9569C469.644 84.259 468.354 86.1056 467.454 88.4967C466.554 90.8878 466.105 93.705 466.105 96.9484Z" fill="#EB2026"/>
<path d="M314.48 124.221H313.78V124.921H314.48V124.221ZM314.48 51.4938V50.7938H313.78V51.4938H314.48ZM329.856 51.4938H330.556V50.7938H329.856V51.4938ZM329.856 81.5009H329.156V82.2009H329.856V81.5009ZM361.071 81.5009V82.2009H361.771V81.5009H361.071ZM361.071 51.4938V50.7938H360.371V51.4938H361.071ZM376.412 51.4938H377.112V50.7938H376.412V51.4938ZM376.412 124.221V124.921H377.112V124.221H376.412ZM361.071 124.221H360.371V124.921H361.071V124.221ZM361.071 94.1785H361.771V93.4785H361.071V94.1785ZM329.856 94.1785V93.4785H329.156V94.1785H329.856ZM329.856 124.221V124.921H330.556V124.221H329.856ZM315.18 124.221V51.4938H313.78V124.221H315.18ZM314.48 52.1938H329.856V50.7938H314.48V52.1938ZM329.156 51.4938V81.5009H330.556V51.4938H329.156ZM329.856 82.2009H361.071V80.8009H329.856V82.2009ZM361.771 81.5009V51.4938H360.371V81.5009H361.771ZM361.071 52.1938H376.412V50.7938H361.071V52.1938ZM375.712 51.4938V124.221H377.112V51.4938H375.712ZM376.412 123.521H361.071V124.921H376.412V123.521ZM361.771 124.221V94.1785H360.371V124.221H361.771ZM361.071 93.4785H329.856V94.8785H361.071V93.4785ZM329.156 94.1785V124.221H330.556V94.1785H329.156ZM329.856 123.521H314.48V124.921H329.856V123.521ZM423.784 100.997H423.084L423.084 101.003L423.784 100.997ZM423.784 69.6756V68.9756H423.084V69.6756H423.784ZM438.912 69.6756H439.612V68.9756H438.912V69.6756ZM438.912 124.221V124.921H439.612V124.221H438.912ZM424.388 124.221H423.688V124.921H424.388V124.221ZM424.388 114.313H425.088V113.613H424.388V114.313ZM423.82 114.313V113.613H423.339L423.166 114.062L423.82 114.313ZM417.676 122.019L417.283 121.44L417.281 121.441L417.676 122.019ZM397.648 122.446L398.007 121.845L398.007 121.845L397.648 122.446ZM391.149 115.379L390.524 115.694L390.526 115.698L391.149 115.379ZM388.805 104.406H388.105L388.105 104.41L388.805 104.406ZM388.805 69.6756V68.9756H388.105V69.6756H388.805ZM403.933 69.6756H404.633V68.9756H403.933V69.6756ZM403.933 101.707H403.233L403.233 101.712L403.933 101.707ZM406.525 109.342L407.043 108.87L407.043 108.87L406.525 109.342ZM418.493 110.904L418.817 111.525L418.824 111.521L418.493 110.904ZM422.328 107.14L421.728 106.78L421.724 106.786L422.328 107.14ZM424.484 100.997V69.6756H423.084V100.997H424.484ZM423.784 70.3756H438.912V68.9756H423.784V70.3756ZM438.212 69.6756V124.221H439.612V69.6756H438.212ZM438.912 123.521H424.388V124.921H438.912V123.521ZM425.088 124.221V114.313H423.688V124.221H425.088ZM424.388 113.613H423.82V115.013H424.388V113.613ZM423.166 114.062C421.987 117.123 420.031 119.578 417.283 121.44L418.069 122.599C421.05 120.578 423.19 117.896 424.473 114.565L423.166 114.062ZM417.281 121.441C414.577 123.289 411.253 124.231 407.271 124.231V125.631C411.48 125.631 415.093 124.632 418.071 122.597L417.281 121.441ZM407.271 124.231C403.735 124.231 400.655 123.429 398.007 121.845L397.288 123.046C400.18 124.777 403.516 125.631 407.271 125.631V124.231ZM398.007 121.845C395.357 120.259 393.279 118.005 391.772 115.06L390.526 115.698C392.144 118.861 394.399 121.317 397.288 123.046L398.007 121.845ZM391.774 115.064C390.294 112.127 389.529 108.581 389.505 104.402L388.105 104.41C388.129 108.753 388.926 112.522 390.524 115.694L391.774 115.064ZM389.505 104.406V69.6756H388.105V104.406H389.505ZM388.805 70.3756H403.933V68.9756H388.805V70.3756ZM403.233 69.6756V101.707H404.633V69.6756H403.233ZM403.233 101.712C403.258 105.056 404.158 107.784 406.008 109.813L407.043 108.87C405.484 107.16 404.656 104.797 404.633 101.702L403.233 101.712ZM406.008 109.813C407.864 111.849 410.346 112.847 413.379 112.847V111.447C410.683 111.447 408.597 110.575 407.043 108.87L406.008 109.813ZM413.379 112.847C415.313 112.847 417.129 112.407 418.817 111.525L418.169 110.284C416.684 111.059 415.091 111.447 413.379 111.447V112.847ZM418.824 111.521C420.531 110.604 421.901 109.254 422.932 107.494L421.724 106.786C420.814 108.34 419.627 109.5 418.161 110.288L418.824 111.521ZM422.928 107.5C424.004 105.707 424.509 103.524 424.484 100.99L423.084 101.003C423.107 103.346 422.64 105.259 421.728 106.78L422.928 107.5ZM451.296 124.221H450.596V124.921H451.296V124.221ZM451.296 51.4938V50.7938H450.596V51.4938H451.296ZM466.424 51.4938H467.124V50.7938H466.424V51.4938ZM466.424 78.8376H465.724V79.5376H466.424V78.8376ZM466.886 78.8376V79.5376H467.338L467.524 79.1257L466.886 78.8376ZM469.762 74.3631L469.224 73.9158L469.223 73.9167L469.762 74.3631ZM474.734 70.5279L475.047 71.154L475.05 71.1526L474.734 70.5279ZM493.413 72.0904L493.044 72.6854L493.047 72.6873L493.413 72.0904ZM501.474 81.4299L500.844 81.7343L500.844 81.7357L501.474 81.4299ZM501.545 112.431L500.911 112.134L500.91 112.136L501.545 112.431ZM493.59 121.913L493.967 122.503L493.968 122.502L493.59 121.913ZM474.876 123.653L474.575 124.285L474.578 124.286L474.876 123.653ZM469.869 119.995L469.342 120.456L469.345 120.46L469.869 119.995ZM466.886 115.485L467.524 115.196L467.337 114.785H466.886V115.485ZM466.211 115.485V114.785H465.511V115.485H466.211ZM466.211 124.221V124.921H466.911V124.221H466.211ZM471.36 111.082L470.926 111.631L470.931 111.634L471.36 111.082ZM483.825 111.046L484.259 111.595L484.264 111.592L483.825 111.046ZM487.696 105.365L487.039 105.122L487.038 105.126L487.696 105.365ZM487.731 88.6387L488.388 88.3979L488.388 88.3979L487.731 88.6387ZM483.86 83.0279L484.295 82.4791L484.295 82.4791L483.86 83.0279ZM471.325 82.9569L470.9 82.4006L470.896 82.4035L471.325 82.9569ZM467.454 88.4967L466.799 88.2502L466.799 88.2502L467.454 88.4967ZM451.996 124.221V51.4938H450.596V124.221H451.996ZM451.296 52.1938H466.424V50.7938H451.296V52.1938ZM465.724 51.4938V78.8376H467.124V51.4938H465.724ZM466.424 79.5376H466.886V78.1376H466.424V79.5376ZM467.524 79.1257C468.156 77.7258 469.078 76.2868 470.301 74.8096L469.223 73.9167C467.937 75.4698 466.941 77.0138 466.248 78.5495L467.524 79.1257ZM470.301 74.8105C471.509 73.3558 473.086 72.1346 475.047 71.154L474.421 69.9018C472.31 70.9572 470.572 72.2928 469.224 73.9158L470.301 74.8105ZM475.05 71.1526C476.985 70.1738 479.426 69.6654 482.404 69.6654V68.2654C479.275 68.2654 476.602 68.7987 474.418 69.9033L475.05 71.1526ZM482.404 69.6654C486.252 69.6654 489.794 70.6711 493.044 72.6854L493.782 71.4954C490.308 69.343 486.511 68.2654 482.404 68.2654V69.6654ZM493.047 72.6873C496.276 74.6654 498.879 77.6671 500.844 81.7343L502.104 81.1255C500.044 76.8593 497.273 73.6347 493.779 71.4935L493.047 72.6873ZM500.844 81.7357C502.797 85.7557 503.792 90.8395 503.792 97.0194H505.192C505.192 90.6993 504.176 85.3901 502.104 81.1241L500.844 81.7357ZM503.792 97.0194C503.792 103.032 502.821 108.061 500.911 112.134L502.179 112.729C504.199 108.421 505.192 103.175 505.192 97.0194H503.792ZM500.91 112.136C499.017 116.201 496.447 119.251 493.213 121.323L493.968 122.502C497.458 120.266 500.191 116.995 502.18 112.727L500.91 112.136ZM493.214 121.323C489.994 123.378 486.385 124.409 482.369 124.409V125.809C486.639 125.809 490.511 124.709 493.967 122.503L493.214 121.323ZM482.369 124.409C479.508 124.409 477.118 123.936 475.174 123.02L474.578 124.286C476.753 125.312 479.359 125.809 482.369 125.809V124.409ZM475.177 123.021C473.213 122.085 471.624 120.919 470.393 119.531L469.345 120.46C470.718 122.007 472.467 123.28 474.575 124.285L475.177 123.021ZM470.396 119.535C469.131 118.085 468.177 116.639 467.524 115.196L466.248 115.774C466.968 117.362 468.003 118.922 469.342 120.456L470.396 119.535ZM466.886 114.785H466.211V116.185H466.886V114.785ZM465.511 115.485V124.221H466.911V115.485H465.511ZM466.211 123.521H451.296V124.921H466.211V123.521ZM465.405 96.9484C465.405 100.254 465.863 103.17 466.798 105.68L468.11 105.191C467.246 102.872 466.805 100.129 466.805 96.9484H465.405ZM466.798 105.68C467.734 108.192 469.104 110.188 470.926 111.631L471.795 110.533C470.208 109.277 468.973 107.509 468.11 105.191L466.798 105.68ZM470.931 111.634C472.774 113.068 475.002 113.771 477.575 113.771V112.371C475.271 112.371 473.356 111.747 471.79 110.529L470.931 111.634ZM477.575 113.771C480.173 113.771 482.415 113.055 484.259 111.595L483.39 110.498C481.826 111.736 479.901 112.371 477.575 112.371V113.771ZM484.264 111.592C486.084 110.125 487.442 108.117 488.354 105.603L487.038 105.126C486.198 107.442 484.975 109.221 483.386 110.501L484.264 111.592ZM488.352 105.607C489.286 103.076 489.745 100.186 489.745 96.9484H488.345C488.345 100.056 487.904 102.776 487.039 105.122L488.352 105.607ZM489.745 96.9484C489.745 93.7363 489.298 90.882 488.388 88.3979L487.074 88.8795C487.916 91.1777 488.345 93.8631 488.345 96.9484H489.745ZM488.388 88.3979C487.476 85.9066 486.117 83.9215 484.295 82.4791L483.426 83.5767C485.013 84.8331 486.235 86.5886 487.074 88.8795L488.388 88.3979ZM484.295 82.4791C482.449 81.018 480.195 80.3038 477.575 80.3038V81.7038C479.927 81.7038 481.862 82.339 483.426 83.5767L484.295 82.4791ZM477.575 80.3038C474.983 80.3038 472.744 80.9919 470.9 82.4006L471.75 83.5132C473.315 82.3177 475.243 81.7038 477.575 81.7038V80.3038ZM470.896 82.4035C469.094 83.7996 467.735 85.7624 466.799 88.2502L468.109 88.7432C468.973 86.4487 470.194 84.7183 471.754 83.5103L470.896 82.4035ZM466.799 88.2502C465.863 90.7381 465.405 93.6425 465.405 96.9484H466.805C466.805 93.7675 467.246 91.0374 468.109 88.7432L466.799 88.2502Z" fill="white" mask="url(#path-3-outside-2_2_68)"/>
<g filter="url(#filter0_f_2_68)">
<path d="M62.095 13.6236C69.8199 1.80333 85.7253 -1.55612 97.6206 6.12006C109.516 13.7962 112.897 29.6012 105.172 41.4215L77.1974 84.2266L34.1206 56.4286L62.095 13.6236Z" fill="#006EBE"/>
<path d="M34.1206 56.4286L77.1974 84.2266L49.223 127.032C41.4981 138.852 25.5927 142.211 13.6974 134.535C1.80209 126.859 -1.5787 111.054 6.14621 99.2337L34.1206 56.4286Z" fill="#EB2026"/>
<path fill-rule="evenodd" clip-rule="evenodd" d="M62.095 13.6236C69.8199 1.80333 85.7253 -1.55612 97.6206 6.12006C109.516 13.7962 112.897 29.6012 105.172 41.4215L49.223 127.032C41.4981 138.852 25.5927 142.211 13.6974 134.535C1.80209 126.859 -1.5787 111.054 6.14621 99.2337L62.095 13.6236ZM74.9699 83.9792L47.5425 125.947C40.4245 136.839 25.7629 139.941 14.7915 132.861C3.82024 125.781 0.708699 111.21 7.82669 100.318L35.254 58.3502L74.9699 83.9792ZM76.064 82.305L36.3482 56.676L63.7755 14.708C70.8935 3.81645 85.5552 0.714337 96.5265 7.79424C107.498 14.8741 110.609 29.4455 103.491 40.3371L76.064 82.305Z" fill="white"/>
<path fill-rule="evenodd" clip-rule="evenodd" d="M45.2638 112.304C46.3225 113.191 46.4622 114.767 45.5759 115.826L39.861 122.652C32.6661 131.246 19.2183 130.463 13.0689 121.093C12.3113 119.938 12.633 118.389 13.7874 117.631C14.9417 116.873 16.4916 117.195 17.2491 118.349C21.5592 124.917 30.9845 125.466 36.0273 119.442L41.7421 112.616C42.6284 111.558 44.2052 111.418 45.2638 112.304Z" fill="white"/>
</g>
<defs>
<filter id="filter0_f_2_68" x="0" y="0" width="111.318" height="140.655" filterUnits="userSpaceOnUse" color-interpolation-filters="sRGB">
<feFlood flood-opacity="0" result="BackgroundImageFix"/>
<feBlend mode="normal" in="SourceGraphic" in2="BackgroundImageFix" result="shape"/>
<feGaussianBlur stdDeviation="1" result="effect1_foregroundBlur_2_68"/>
</filter>
</defs>
</svg>
