<svg width="517" height="157" viewBox="0 0 517 157" fill="none" xmlns="http://www.w3.org/2000/svg">
<mask id="path-1-outside-1_2_55" maskUnits="userSpaceOnUse" x="78" y="54" width="233" height="80" fill="black">
<rect fill="white" x="78" y="54" width="233" height="80"/>
<path d="M79.321 59.2727H98.2841L118.312 108.136H119.165L139.193 59.2727H158.156V132H143.241V84.6634H142.638L123.817 131.645H113.661L94.8395 84.4858H94.2358V132H79.321V59.2727ZM195.399 133.065C189.788 133.065 184.958 131.929 180.91 129.656C176.886 127.36 173.784 124.116 171.606 119.926C169.428 115.712 168.339 110.729 168.339 104.976C168.339 99.3651 169.428 94.4408 171.606 90.2031C173.784 85.9654 176.85 82.6629 180.804 80.2955C184.781 77.928 189.445 76.7443 194.795 76.7443C198.394 76.7443 201.743 77.3243 204.845 78.4844C207.97 79.6207 210.692 81.3371 213.012 83.6335C215.356 85.9299 217.179 88.8182 218.481 92.2983C219.783 95.7547 220.434 99.803 220.434 104.443V108.598H174.376V99.223H206.194C206.194 97.045 205.721 95.1155 204.774 93.4347C203.827 91.7538 202.513 90.4399 200.832 89.4929C199.175 88.5223 197.245 88.0369 195.044 88.0369C192.747 88.0369 190.711 88.5696 188.936 89.6349C187.184 90.6766 185.811 92.0852 184.816 93.8608C183.822 95.6127 183.313 97.5658 183.289 99.7202V108.634C183.289 111.332 183.787 113.664 184.781 115.629C185.799 117.594 187.231 119.109 189.078 120.175C190.924 121.24 193.114 121.773 195.647 121.773C197.328 121.773 198.867 121.536 200.264 121.062C201.661 120.589 202.856 119.879 203.85 118.932C204.845 117.985 205.602 116.825 206.123 115.452L220.115 116.375C219.404 119.737 217.949 122.672 215.747 125.182C213.569 127.668 210.752 129.609 207.295 131.006C203.862 132.379 199.897 133.065 195.399 133.065ZM250.406 132.888C246.263 132.888 242.511 131.822 239.149 129.692C235.811 127.537 233.159 124.377 231.194 120.21C229.253 116.02 228.282 110.883 228.282 104.798C228.282 98.5483 229.288 93.3518 231.301 89.2088C233.313 85.0421 235.988 81.929 239.326 79.8693C242.688 77.786 246.369 76.7443 250.37 76.7443C253.424 76.7443 255.969 77.2652 258.005 78.3068C260.065 79.3248 261.722 80.6032 262.977 82.142C264.255 83.6572 265.226 85.1487 265.889 86.6165H266.35V59.2727H281.443V132H266.528V123.264H265.889C265.179 124.779 264.172 126.283 262.87 127.774C261.592 129.242 259.923 130.461 257.863 131.432C255.827 132.402 253.342 132.888 250.406 132.888ZM255.2 120.849C257.638 120.849 259.698 120.187 261.379 118.861C263.083 117.511 264.386 115.629 265.285 113.214C266.208 110.8 266.67 107.971 266.67 104.727C266.67 101.484 266.22 98.6667 265.321 96.2756C264.421 93.8845 263.119 92.0379 261.414 90.7358C259.71 89.4337 257.638 88.7827 255.2 88.7827C252.714 88.7827 250.619 89.4574 248.914 90.8068C247.21 92.1562 245.92 94.0265 245.044 96.4176C244.168 98.8087 243.73 101.579 243.73 104.727C243.73 107.9 244.168 110.705 245.044 113.143C245.943 115.558 247.234 117.452 248.914 118.825C250.619 120.175 252.714 120.849 255.2 120.849ZM293.881 132V77.4545H309.009V132H293.881ZM301.48 70.4233C299.231 70.4233 297.302 69.6776 295.692 68.1861C294.106 66.6709 293.312 64.8598 293.312 62.7528C293.312 60.6695 294.106 58.8821 295.692 57.3906C297.302 55.8755 299.231 55.1179 301.48 55.1179C303.729 55.1179 305.647 55.8755 307.233 57.3906C308.843 58.8821 309.648 60.6695 309.648 62.7528C309.648 64.8598 308.843 66.6709 307.233 68.1861C305.647 69.6776 303.729 70.4233 301.48 70.4233Z"/>
</mask>
<path d="M79.321 59.2727H98.2841L118.312 108.136H119.165L139.193 59.2727H158.156V132H143.241V84.6634H142.638L123.817 131.645H113.661L94.8395 84.4858H94.2358V132H79.321V59.2727ZM195.399 133.065C189.788 133.065 184.958 131.929 180.91 129.656C176.886 127.36 173.784 124.116 171.606 119.926C169.428 115.712 168.339 110.729 168.339 104.976C168.339 99.3651 169.428 94.4408 171.606 90.2031C173.784 85.9654 176.85 82.6629 180.804 80.2955C184.781 77.928 189.445 76.7443 194.795 76.7443C198.394 76.7443 201.743 77.3243 204.845 78.4844C207.97 79.6207 210.692 81.3371 213.012 83.6335C215.356 85.9299 217.179 88.8182 218.481 92.2983C219.783 95.7547 220.434 99.803 220.434 104.443V108.598H174.376V99.223H206.194C206.194 97.045 205.721 95.1155 204.774 93.4347C203.827 91.7538 202.513 90.4399 200.832 89.4929C199.175 88.5223 197.245 88.0369 195.044 88.0369C192.747 88.0369 190.711 88.5696 188.936 89.6349C187.184 90.6766 185.811 92.0852 184.816 93.8608C183.822 95.6127 183.313 97.5658 183.289 99.7202V108.634C183.289 111.332 183.787 113.664 184.781 115.629C185.799 117.594 187.231 119.109 189.078 120.175C190.924 121.24 193.114 121.773 195.647 121.773C197.328 121.773 198.867 121.536 200.264 121.062C201.661 120.589 202.856 119.879 203.85 118.932C204.845 117.985 205.602 116.825 206.123 115.452L220.115 116.375C219.404 119.737 217.949 122.672 215.747 125.182C213.569 127.668 210.752 129.609 207.295 131.006C203.862 132.379 199.897 133.065 195.399 133.065ZM250.406 132.888C246.263 132.888 242.511 131.822 239.149 129.692C235.811 127.537 233.159 124.377 231.194 120.21C229.253 116.02 228.282 110.883 228.282 104.798C228.282 98.5483 229.288 93.3518 231.301 89.2088C233.313 85.0421 235.988 81.929 239.326 79.8693C242.688 77.786 246.369 76.7443 250.37 76.7443C253.424 76.7443 255.969 77.2652 258.005 78.3068C260.065 79.3248 261.722 80.6032 262.977 82.142C264.255 83.6572 265.226 85.1487 265.889 86.6165H266.35V59.2727H281.443V132H266.528V123.264H265.889C265.179 124.779 264.172 126.283 262.87 127.774C261.592 129.242 259.923 130.461 257.863 131.432C255.827 132.402 253.342 132.888 250.406 132.888ZM255.2 120.849C257.638 120.849 259.698 120.187 261.379 118.861C263.083 117.511 264.386 115.629 265.285 113.214C266.208 110.8 266.67 107.971 266.67 104.727C266.67 101.484 266.22 98.6667 265.321 96.2756C264.421 93.8845 263.119 92.0379 261.414 90.7358C259.71 89.4337 257.638 88.7827 255.2 88.7827C252.714 88.7827 250.619 89.4574 248.914 90.8068C247.21 92.1562 245.92 94.0265 245.044 96.4176C244.168 98.8087 243.73 101.579 243.73 104.727C243.73 107.9 244.168 110.705 245.044 113.143C245.943 115.558 247.234 117.452 248.914 118.825C250.619 120.175 252.714 120.849 255.2 120.849ZM293.881 132V77.4545H309.009V132H293.881ZM301.48 70.4233C299.231 70.4233 297.302 69.6776 295.692 68.1861C294.106 66.6709 293.312 64.8598 293.312 62.7528C293.312 60.6695 294.106 58.8821 295.692 57.3906C297.302 55.8755 299.231 55.1179 301.48 55.1179C303.729 55.1179 305.647 55.8755 307.233 57.3906C308.843 58.8821 309.648 60.6695 309.648 62.7528C309.648 64.8598 308.843 66.6709 307.233 68.1861C305.647 69.6776 303.729 70.4233 301.48 70.4233Z" fill="#006EBE"/>
<path d="M79.321 59.2727V58.7727H78.821V59.2727H79.321ZM98.2841 59.2727L98.7467 59.0831L98.6195 58.7727H98.2841V59.2727ZM118.312 108.136L117.85 108.326L117.977 108.636H118.312V108.136ZM119.165 108.136V108.636H119.5L119.627 108.326L119.165 108.136ZM139.193 59.2727V58.7727H138.858L138.731 59.0831L139.193 59.2727ZM158.156 59.2727H158.656V58.7727H158.156V59.2727ZM158.156 132V132.5H158.656V132H158.156ZM143.241 132H142.741V132.5H143.241V132ZM143.241 84.6634H143.741V84.1634H143.241V84.6634ZM142.638 84.6634V84.1634H142.299L142.174 84.4774L142.638 84.6634ZM123.817 131.645V132.145H124.155L124.281 131.831L123.817 131.645ZM113.661 131.645L113.196 131.83L113.322 132.145H113.661V131.645ZM94.8395 84.4858L95.3039 84.3005L95.1783 83.9858H94.8395V84.4858ZM94.2358 84.4858V83.9858H93.7358V84.4858H94.2358ZM94.2358 132V132.5H94.7358V132H94.2358ZM79.321 132H78.821V132.5H79.321V132ZM79.321 59.7727H98.2841V58.7727H79.321V59.7727ZM97.8214 59.4624L117.85 108.326L118.775 107.947L98.7467 59.0831L97.8214 59.4624ZM118.312 108.636H119.165V107.636H118.312V108.636ZM119.627 108.326L139.656 59.4624L138.731 59.0831L118.702 107.947L119.627 108.326ZM139.193 59.7727H158.156V58.7727H139.193V59.7727ZM157.656 59.2727V132H158.656V59.2727H157.656ZM158.156 131.5H143.241V132.5H158.156V131.5ZM143.741 132V84.6634H142.741V132H143.741ZM143.241 84.1634H142.638V85.1634H143.241V84.1634ZM142.174 84.4774L123.353 131.459L124.281 131.831L143.102 84.8493L142.174 84.4774ZM123.817 131.145H113.661V132.145H123.817V131.145ZM114.125 131.46L95.3039 84.3005L94.3751 84.6711L113.196 131.83L114.125 131.46ZM94.8395 83.9858H94.2358V84.9858H94.8395V83.9858ZM93.7358 84.4858V132H94.7358V84.4858H93.7358ZM94.2358 131.5H79.321V132.5H94.2358V131.5ZM79.821 132V59.2727H78.821V132H79.821ZM180.91 129.656L180.662 130.091L180.665 130.092L180.91 129.656ZM171.606 119.926L171.162 120.156L171.163 120.157L171.606 119.926ZM171.606 90.2031L171.161 89.9746L171.161 89.9746L171.606 90.2031ZM180.804 80.2955L180.548 79.8658L180.547 79.8665L180.804 80.2955ZM204.845 78.4844L204.67 78.9527L204.674 78.9543L204.845 78.4844ZM213.012 83.6335L212.661 83.9889L212.663 83.9907L213.012 83.6335ZM218.481 92.2983L218.013 92.4735L218.013 92.4746L218.481 92.2983ZM220.434 108.598V109.098H220.934V108.598H220.434ZM174.376 108.598H173.876V109.098H174.376V108.598ZM174.376 99.223V98.723H173.876V99.223H174.376ZM206.194 99.223V99.723H206.694V99.223H206.194ZM204.774 93.4347L204.338 93.6801L204.338 93.6801L204.774 93.4347ZM200.832 89.4929L200.579 89.9244L200.587 89.9285L200.832 89.4929ZM188.936 89.6349L189.191 90.0647L189.193 90.0637L188.936 89.6349ZM184.816 93.8608L185.251 94.1076L185.253 94.1051L184.816 93.8608ZM183.289 99.7202L182.789 99.7147V99.7202H183.289ZM184.781 115.629L184.335 115.855L184.337 115.859L184.781 115.629ZM200.264 121.062L200.103 120.589L200.103 120.589L200.264 121.062ZM203.85 118.932L203.506 118.57L203.506 118.57L203.85 118.932ZM206.123 115.452L206.156 114.953L205.787 114.928L205.656 115.274L206.123 115.452ZM220.115 116.375L220.604 116.478L220.723 115.914L220.148 115.876L220.115 116.375ZM215.747 125.182L215.371 124.852L215.371 124.852L215.747 125.182ZM207.295 131.006L207.481 131.47L207.482 131.469L207.295 131.006ZM195.399 132.565C189.856 132.565 185.114 131.443 181.155 129.22L180.665 130.092C184.803 132.415 189.72 133.565 195.399 133.565V132.565ZM181.158 129.222C177.219 126.974 174.184 123.802 172.05 119.696L171.163 120.157C173.384 124.431 176.553 127.746 180.662 130.091L181.158 129.222ZM172.05 119.697C169.916 115.567 168.839 110.666 168.839 104.976H167.839C167.839 110.792 168.94 115.857 171.162 120.156L172.05 119.697ZM168.839 104.976C168.839 99.4305 169.915 94.5871 172.051 90.4317L171.161 89.9746C168.941 94.2945 167.839 99.2996 167.839 104.976H168.839ZM172.051 90.4317C174.188 86.2741 177.19 83.0422 181.06 80.7244L180.547 79.8665C176.51 82.2835 173.381 85.6568 171.161 89.9746L172.051 90.4317ZM181.059 80.7251C184.948 78.4105 189.52 77.2443 194.795 77.2443V76.2443C189.369 76.2443 184.614 77.4456 180.548 79.8658L181.059 80.7251ZM194.795 77.2443C198.339 77.2443 201.629 77.8154 204.67 78.9527L205.02 78.0161C201.858 76.8333 198.448 76.2443 194.795 76.2443V77.2443ZM204.674 78.9543C207.732 80.0664 210.393 81.7442 212.661 83.9889L213.364 83.2782C210.992 80.93 208.207 79.175 205.016 78.0145L204.674 78.9543ZM212.663 83.9907C214.947 86.2294 216.733 89.0529 218.013 92.4735L218.949 92.1231C217.625 88.5835 215.765 85.6304 213.362 83.2764L212.663 83.9907ZM218.013 92.4746C219.289 95.8623 219.934 99.8484 219.934 104.443H220.934C220.934 99.7576 220.277 95.6472 218.949 92.122L218.013 92.4746ZM219.934 104.443V108.598H220.934V104.443H219.934ZM220.434 108.098H174.376V109.098H220.434V108.098ZM174.876 108.598V99.223H173.876V108.598H174.876ZM174.376 99.723H206.194V98.723H174.376V99.723ZM206.694 99.223C206.694 96.9703 206.204 94.9543 205.209 93.1892L204.338 93.6801C205.238 95.2768 205.694 97.1197 205.694 99.223H206.694ZM205.209 93.1892C204.218 91.4288 202.838 90.0491 201.077 89.0573L200.587 89.9285C202.188 90.8307 203.436 92.0788 204.338 93.6801L205.209 93.1892ZM201.085 89.0615C199.34 88.0397 197.321 87.5369 195.044 87.5369V88.5369C197.17 88.5369 199.009 89.0048 200.579 89.9243L201.085 89.0615ZM195.044 87.5369C192.667 87.5369 190.54 88.0893 188.678 89.2062L189.193 90.0637C190.883 89.0499 192.828 88.5369 195.044 88.5369V87.5369ZM188.68 89.2052C186.853 90.2916 185.417 91.7642 184.38 93.6165L185.253 94.1051C186.204 92.4063 187.515 91.0616 189.191 90.0647L188.68 89.2052ZM184.382 93.614C183.343 95.4446 182.814 97.4817 182.789 99.7147L183.789 99.7257C183.812 97.6499 184.302 95.7808 185.251 94.1076L184.382 93.614ZM182.789 99.7202V108.634H183.789V99.7202H182.789ZM182.789 108.634C182.789 111.393 183.298 113.806 184.335 115.855L185.227 115.404C184.275 113.523 183.789 111.271 183.789 108.634H182.789ZM184.337 115.859C185.397 117.906 186.895 119.493 188.828 120.608L189.328 119.742C187.567 118.726 186.201 117.283 185.225 115.399L184.337 115.859ZM188.828 120.608C190.764 121.725 193.043 122.273 195.647 122.273V121.273C193.185 121.273 191.085 120.756 189.328 119.742L188.828 120.608ZM195.647 122.273C197.375 122.273 198.969 122.029 200.424 121.536L200.103 120.589C198.765 121.043 197.281 121.273 195.647 121.273V122.273ZM200.424 121.536C201.885 121.041 203.145 120.295 204.195 119.294L203.506 118.57C202.568 119.463 201.436 120.137 200.103 120.589L200.424 121.536ZM204.195 119.294C205.248 118.292 206.045 117.067 206.591 115.629L205.656 115.274C205.16 116.582 204.442 117.678 203.506 118.57L204.195 119.294ZM206.09 115.951L220.082 116.874L220.148 115.876L206.156 114.953L206.09 115.951ZM219.626 116.272C218.932 119.552 217.514 122.409 215.371 124.852L216.123 125.512C218.383 122.936 219.876 119.921 220.604 116.478L219.626 116.272ZM215.371 124.852C213.251 127.272 210.501 129.171 207.108 130.542L207.482 131.469C211.002 130.047 213.887 128.063 216.123 125.511L215.371 124.852ZM207.109 130.541C203.747 131.886 199.847 132.565 195.399 132.565V133.565C199.947 133.565 203.978 132.871 207.481 131.47L207.109 130.541ZM239.149 129.692L238.878 130.112L238.881 130.114L239.149 129.692ZM231.194 120.21L230.741 120.42L230.742 120.423L231.194 120.21ZM231.301 89.2088L231.751 89.4273L231.751 89.4263L231.301 89.2088ZM239.326 79.8693L239.589 80.2948L239.59 80.2943L239.326 79.8693ZM258.005 78.3068L257.778 78.752L257.784 78.7551L258.005 78.3068ZM262.977 82.142L262.589 82.4581L262.595 82.4645L262.977 82.142ZM265.889 86.6165L265.433 86.8223L265.566 87.1165H265.889V86.6165ZM266.35 86.6165V87.1165H266.85V86.6165H266.35ZM266.35 59.2727V58.7727H265.85V59.2727H266.35ZM281.443 59.2727H281.943V58.7727H281.443V59.2727ZM281.443 132V132.5H281.943V132H281.443ZM266.528 132H266.028V132.5H266.528V132ZM266.528 123.264H267.028V122.764H266.528V123.264ZM265.889 123.264V122.764H265.571L265.436 123.052L265.889 123.264ZM262.87 127.774L262.494 127.445L262.493 127.446L262.87 127.774ZM257.863 131.432L257.65 130.98L257.648 130.98L257.863 131.432ZM261.379 118.861L261.689 119.253L261.689 119.253L261.379 118.861ZM265.285 113.214L264.818 113.036L264.817 113.04L265.285 113.214ZM265.321 96.2756L265.789 96.0995L265.789 96.0995L265.321 96.2756ZM248.914 90.8068L248.604 90.4148L248.604 90.4148L248.914 90.8068ZM245.044 113.143L244.573 113.313L244.575 113.318L245.044 113.143ZM248.914 118.825L248.598 119.213L248.604 119.217L248.914 118.825ZM250.406 132.388C246.354 132.388 242.695 131.347 239.416 129.269L238.881 130.114C242.326 132.298 246.172 133.388 250.406 133.388V132.388ZM239.42 129.272C236.172 127.176 233.578 124.093 231.646 119.997L230.742 120.423C232.74 124.661 235.449 127.899 238.878 130.112L239.42 129.272ZM231.648 120C229.745 115.893 228.782 110.832 228.782 104.798H227.782C227.782 110.933 228.761 116.147 230.741 120.42L231.648 120ZM228.782 104.798C228.782 98.5984 229.781 93.4824 231.751 89.4273L230.851 88.9904C228.796 93.2212 227.782 98.4982 227.782 104.798H228.782ZM231.751 89.4263C233.729 85.3297 236.346 82.296 239.589 80.2948L239.064 79.4438C235.631 81.5619 232.897 84.7545 230.851 88.9914L231.751 89.4263ZM239.59 80.2943C242.871 78.2606 246.461 77.2443 250.37 77.2443V76.2443C246.278 76.2443 242.505 77.3114 239.063 79.4443L239.59 80.2943ZM250.37 77.2443C253.371 77.2443 255.832 77.7564 257.778 78.7519L258.233 77.8617C256.107 76.7739 253.478 76.2443 250.37 76.2443V77.2443ZM257.784 78.7551C259.789 79.7463 261.386 80.9827 262.589 82.458L263.364 81.8261C262.058 80.2237 260.341 78.9033 258.227 77.8586L257.784 78.7551ZM262.595 82.4645C263.85 83.9521 264.793 85.4049 265.433 86.8223L266.345 86.4107C265.659 84.8924 264.661 83.3623 263.359 81.8196L262.595 82.4645ZM265.889 87.1165H266.35V86.1165H265.889V87.1165ZM266.85 86.6165V59.2727H265.85V86.6165H266.85ZM266.35 59.7727H281.443V58.7727H266.35V59.7727ZM280.943 59.2727V132H281.943V59.2727H280.943ZM281.443 131.5H266.528V132.5H281.443V131.5ZM267.028 132V123.264H266.028V132H267.028ZM266.528 122.764H265.889V123.764H266.528V122.764ZM265.436 123.052C264.749 124.518 263.771 125.983 262.494 127.445L263.247 128.103C264.574 126.583 265.608 125.041 266.342 123.476L265.436 123.052ZM262.493 127.446C261.267 128.853 259.658 130.033 257.65 130.98L258.076 131.884C260.188 130.889 261.916 129.631 263.247 128.103L262.493 127.446ZM257.648 130.98C255.696 131.911 253.289 132.388 250.406 132.388V133.388C253.394 133.388 255.958 132.894 258.078 131.883L257.648 130.98ZM255.2 121.349C257.734 121.349 259.907 120.658 261.689 119.253L261.069 118.468C259.489 119.715 257.542 120.349 255.2 120.349V121.349ZM261.689 119.253C263.478 117.837 264.828 115.873 265.754 113.389L264.817 113.04C263.943 115.385 262.689 117.186 261.069 118.469L261.689 119.253ZM265.752 113.393C266.702 110.909 267.17 108.017 267.17 104.727H266.17C266.17 107.925 265.715 110.691 264.818 113.036L265.752 113.393ZM267.17 104.727C267.17 101.439 266.714 98.5598 265.789 96.0995L264.853 96.4516C265.726 98.7736 266.17 101.529 266.17 104.727H267.17ZM265.789 96.0995C264.862 93.6376 263.51 91.7075 261.718 90.3385L261.111 91.1331C262.728 92.3683 263.98 94.1313 264.853 96.4516L265.789 96.0995ZM261.718 90.3385C259.914 88.9608 257.732 88.2827 255.2 88.2827V89.2827C257.544 89.2827 259.505 89.9066 261.111 91.1331L261.718 90.3385ZM255.2 88.2827C252.618 88.2827 250.409 88.9856 248.604 90.4148L249.225 91.1988C250.829 89.9292 252.81 89.2827 255.2 89.2827V88.2827ZM248.604 90.4148C246.816 91.8307 245.476 93.783 244.574 96.2456L245.513 96.5896C246.363 94.2701 247.604 92.4818 249.225 91.1988L248.604 90.4148ZM244.574 96.2456C243.674 98.7031 243.23 101.533 243.23 104.727H244.23C244.23 101.624 244.662 98.9143 245.513 96.5896L244.574 96.2456ZM243.23 104.727C243.23 107.945 243.674 110.809 244.573 113.313L245.514 112.974C244.662 110.601 244.23 107.854 244.23 104.727H243.23ZM244.575 113.318C245.5 115.8 246.837 117.774 248.598 119.213L249.231 118.438C247.63 117.131 246.387 115.316 245.512 112.969L244.575 113.318ZM248.604 119.217C250.409 120.647 252.618 121.349 255.2 121.349V120.349C252.81 120.349 250.829 119.703 249.225 118.433L248.604 119.217ZM293.881 132H293.381V132.5H293.881V132ZM293.881 77.4545V76.9545H293.381V77.4545H293.881ZM309.009 77.4545H309.509V76.9545H309.009V77.4545ZM309.009 132V132.5H309.509V132H309.009ZM295.692 68.1861L295.346 68.5477L295.352 68.5529L295.692 68.1861ZM295.692 57.3906L296.034 57.7549L296.034 57.7547L295.692 57.3906ZM307.233 57.3906L306.888 57.7522L306.893 57.7574L307.233 57.3906ZM307.233 68.1861L307.575 68.5503L307.576 68.5502L307.233 68.1861ZM294.381 132V77.4545H293.381V132H294.381ZM293.881 77.9545H309.009V76.9545H293.881V77.9545ZM308.509 77.4545V132H309.509V77.4545H308.509ZM309.009 131.5H293.881V132.5H309.009V131.5ZM301.48 69.9233C299.354 69.9233 297.546 69.2228 296.032 67.8193L295.352 68.5529C297.057 70.1323 299.109 70.9233 301.48 70.9233V69.9233ZM296.037 67.8245C294.545 66.3994 293.812 64.7171 293.812 62.7528H292.812C292.812 65.0026 293.666 66.9425 295.346 68.5476L296.037 67.8245ZM293.812 62.7528C293.812 60.8143 294.543 59.1567 296.034 57.7549L295.349 57.0264C293.668 58.6075 292.812 60.5247 292.812 62.7528H293.812ZM296.034 57.7547C297.55 56.3285 299.356 55.6179 301.48 55.6179V54.6179C299.106 54.6179 297.053 55.4224 295.349 57.0265L296.034 57.7547ZM301.48 55.6179C303.604 55.6179 305.397 56.3284 306.888 57.7522L307.578 57.0291C305.897 55.4226 303.854 54.6179 301.48 54.6179V55.6179ZM306.893 57.7574C308.407 59.1599 309.148 60.8169 309.148 62.7528H310.148C310.148 60.5221 309.279 58.6043 307.573 57.0238L306.893 57.7574ZM309.148 62.7528C309.148 64.7145 308.405 66.3961 306.89 67.822L307.576 68.5502C309.28 66.9458 310.148 65.0052 310.148 62.7528H309.148ZM306.89 67.8218C305.4 69.223 303.607 69.9233 301.48 69.9233V70.9233C303.852 70.9233 305.893 70.1321 307.575 68.5503L306.89 67.8218Z" fill="white" mask="url(#path-1-outside-1_2_55)"/>
<mask id="path-3-outside-2_2_55" maskUnits="userSpaceOnUse" x="321" y="58" width="192" height="76" fill="black">
<rect fill="white" x="321" y="58" width="192" height="76"/>
<path d="M322.321 132V59.2727H337.697V89.2798H368.912V59.2727H384.253V132H368.912V101.957H337.697V132H322.321ZM431.625 108.776V77.4545H446.753V132H432.229V122.092H431.661C430.429 125.288 428.382 127.857 425.517 129.798C422.676 131.74 419.208 132.71 415.112 132.71C411.466 132.71 408.259 131.882 405.489 130.224C402.719 128.567 400.553 126.212 398.99 123.158C397.451 120.104 396.67 116.446 396.646 112.185V77.4545H411.774V109.486C411.798 112.705 412.662 115.25 414.366 117.121C416.071 118.991 418.356 119.926 421.22 119.926C423.043 119.926 424.748 119.512 426.334 118.683C427.92 117.831 429.198 116.576 430.169 114.919C431.163 113.262 431.649 111.214 431.625 108.776ZM459.137 132V59.2727H474.265V86.6165H474.727C475.39 85.1487 476.349 83.6572 477.603 82.142C478.882 80.6032 480.539 79.3248 482.575 78.3068C484.635 77.2652 487.191 76.7443 490.245 76.7443C494.223 76.7443 497.892 77.786 501.254 79.8693C504.616 81.929 507.303 85.0421 509.315 89.2088C511.327 93.3518 512.333 98.5483 512.333 104.798C512.333 110.883 511.351 116.02 509.386 120.21C507.445 124.377 504.793 127.537 501.431 129.692C498.093 131.822 494.353 132.888 490.21 132.888C487.274 132.888 484.777 132.402 482.717 131.432C480.681 130.461 479.012 129.242 477.71 127.774C476.408 126.283 475.413 124.779 474.727 123.264H474.052V132H459.137ZM473.946 104.727C473.946 107.971 474.395 110.8 475.295 113.214C476.195 115.629 477.497 117.511 479.201 118.861C480.906 120.187 482.977 120.849 485.416 120.849C487.878 120.849 489.961 120.175 491.666 118.825C493.37 117.452 494.661 115.558 495.537 113.143C496.436 110.705 496.886 107.9 496.886 104.727C496.886 101.579 496.448 98.8087 495.572 96.4176C494.696 94.0265 493.406 92.1562 491.701 90.8068C489.997 89.4574 487.902 88.7827 485.416 88.7827C482.954 88.7827 480.87 89.4337 479.166 90.7358C477.485 92.0379 476.195 93.8845 475.295 96.2756C474.395 98.6667 473.946 101.484 473.946 104.727Z"/>
</mask>
<path d="M322.321 132V59.2727H337.697V89.2798H368.912V59.2727H384.253V132H368.912V101.957H337.697V132H322.321ZM431.625 108.776V77.4545H446.753V132H432.229V122.092H431.661C430.429 125.288 428.382 127.857 425.517 129.798C422.676 131.74 419.208 132.71 415.112 132.71C411.466 132.71 408.259 131.882 405.489 130.224C402.719 128.567 400.553 126.212 398.99 123.158C397.451 120.104 396.67 116.446 396.646 112.185V77.4545H411.774V109.486C411.798 112.705 412.662 115.25 414.366 117.121C416.071 118.991 418.356 119.926 421.22 119.926C423.043 119.926 424.748 119.512 426.334 118.683C427.92 117.831 429.198 116.576 430.169 114.919C431.163 113.262 431.649 111.214 431.625 108.776ZM459.137 132V59.2727H474.265V86.6165H474.727C475.39 85.1487 476.349 83.6572 477.603 82.142C478.882 80.6032 480.539 79.3248 482.575 78.3068C484.635 77.2652 487.191 76.7443 490.245 76.7443C494.223 76.7443 497.892 77.786 501.254 79.8693C504.616 81.929 507.303 85.0421 509.315 89.2088C511.327 93.3518 512.333 98.5483 512.333 104.798C512.333 110.883 511.351 116.02 509.386 120.21C507.445 124.377 504.793 127.537 501.431 129.692C498.093 131.822 494.353 132.888 490.21 132.888C487.274 132.888 484.777 132.402 482.717 131.432C480.681 130.461 479.012 129.242 477.71 127.774C476.408 126.283 475.413 124.779 474.727 123.264H474.052V132H459.137ZM473.946 104.727C473.946 107.971 474.395 110.8 475.295 113.214C476.195 115.629 477.497 117.511 479.201 118.861C480.906 120.187 482.977 120.849 485.416 120.849C487.878 120.849 489.961 120.175 491.666 118.825C493.37 117.452 494.661 115.558 495.537 113.143C496.436 110.705 496.886 107.9 496.886 104.727C496.886 101.579 496.448 98.8087 495.572 96.4176C494.696 94.0265 493.406 92.1562 491.701 90.8068C489.997 89.4574 487.902 88.7827 485.416 88.7827C482.954 88.7827 480.87 89.4337 479.166 90.7358C477.485 92.0379 476.195 93.8845 475.295 96.2756C474.395 98.6667 473.946 101.484 473.946 104.727Z" fill="#EB2026"/>
<path d="M322.321 132H321.821V132.5H322.321V132ZM322.321 59.2727V58.7727H321.821V59.2727H322.321ZM337.697 59.2727H338.197V58.7727H337.697V59.2727ZM337.697 89.2798H337.197V89.7798H337.697V89.2798ZM368.912 89.2798V89.7798H369.412V89.2798H368.912ZM368.912 59.2727V58.7727H368.412V59.2727H368.912ZM384.253 59.2727H384.753V58.7727H384.253V59.2727ZM384.253 132V132.5H384.753V132H384.253ZM368.912 132H368.412V132.5H368.912V132ZM368.912 101.957H369.412V101.457H368.912V101.957ZM337.697 101.957V101.457H337.197V101.957H337.697ZM337.697 132V132.5H338.197V132H337.697ZM322.821 132V59.2727H321.821V132H322.821ZM322.321 59.7727H337.697V58.7727H322.321V59.7727ZM337.197 59.2727V89.2798H338.197V59.2727H337.197ZM337.697 89.7798H368.912V88.7798H337.697V89.7798ZM369.412 89.2798V59.2727H368.412V89.2798H369.412ZM368.912 59.7727H384.253V58.7727H368.912V59.7727ZM383.753 59.2727V132H384.753V59.2727H383.753ZM384.253 131.5H368.912V132.5H384.253V131.5ZM369.412 132V101.957H368.412V132H369.412ZM368.912 101.457H337.697V102.457H368.912V101.457ZM337.197 101.957V132H338.197V101.957H337.197ZM337.697 131.5H322.321V132.5H337.697V131.5ZM431.625 108.776H431.125L431.125 108.78L431.625 108.776ZM431.625 77.4545V76.9545H431.125V77.4545H431.625ZM446.753 77.4545H447.253V76.9545H446.753V77.4545ZM446.753 132V132.5H447.253V132H446.753ZM432.229 132H431.729V132.5H432.229V132ZM432.229 122.092H432.729V121.592H432.229V122.092ZM431.661 122.092V121.592H431.317L431.194 121.913L431.661 122.092ZM425.517 129.798L425.237 129.384L425.235 129.385L425.517 129.798ZM405.489 130.224L405.745 129.795L405.745 129.795L405.489 130.224ZM398.99 123.158L398.544 123.383L398.545 123.385L398.99 123.158ZM396.646 112.185L396.146 112.185L396.146 112.187L396.646 112.185ZM396.646 77.4545V76.9545H396.146V77.4545H396.646ZM411.774 77.4545H412.274V76.9545H411.774V77.4545ZM411.774 109.486H411.274L411.274 109.489L411.774 109.486ZM414.366 117.121L414.736 116.784L414.736 116.784L414.366 117.121ZM426.334 118.683L426.565 119.126L426.57 119.124L426.334 118.683ZM430.169 114.919L429.74 114.662L429.738 114.666L430.169 114.919ZM432.125 108.776V77.4545H431.125V108.776H432.125ZM431.625 77.9545H446.753V76.9545H431.625V77.9545ZM446.253 77.4545V132H447.253V77.4545H446.253ZM446.753 131.5H432.229V132.5H446.753V131.5ZM432.729 132V122.092H431.729V132H432.729ZM432.229 121.592H431.661V122.592H432.229V121.592ZM431.194 121.913C430 125.012 428.018 127.5 425.237 129.384L425.798 130.212C428.746 128.214 430.859 125.564 432.127 122.272L431.194 121.913ZM425.235 129.385C422.492 131.26 419.127 132.21 415.112 132.21V133.21C419.289 133.21 422.86 132.219 425.799 130.211L425.235 129.385ZM415.112 132.21C411.545 132.21 408.428 131.4 405.745 129.795L405.232 130.654C408.089 132.363 411.388 133.21 415.112 133.21V132.21ZM405.745 129.795C403.061 128.189 400.958 125.906 399.435 122.93L398.545 123.385C400.147 126.517 402.376 128.945 405.232 130.654L405.745 129.795ZM399.437 122.933C397.94 119.963 397.17 116.385 397.146 112.182L396.146 112.187C396.17 116.507 396.962 120.245 398.544 123.383L399.437 122.933ZM397.146 112.185V77.4545H396.146V112.185H397.146ZM396.646 77.9545H411.774V76.9545H396.646V77.9545ZM411.274 77.4545V109.486H412.274V77.4545H411.274ZM411.274 109.489C411.298 112.798 412.189 115.473 413.997 117.458L414.736 116.784C413.135 115.028 412.297 112.613 412.274 109.482L411.274 109.489ZM413.997 117.458C415.809 119.446 418.235 120.426 421.22 120.426V119.426C418.476 119.426 416.333 118.536 414.736 116.784L413.997 117.458ZM421.22 120.426C423.122 120.426 424.906 119.993 426.565 119.126L426.102 118.24C424.589 119.031 422.964 119.426 421.22 119.426V120.426ZM426.57 119.124C428.243 118.225 429.587 116.903 430.6 115.172L429.738 114.666C428.81 116.25 427.597 117.437 426.097 118.243L426.57 119.124ZM430.598 115.176C431.651 113.422 432.149 111.278 432.125 108.771L431.125 108.78C431.148 111.151 430.676 113.102 429.74 114.662L430.598 115.176ZM459.137 132H458.637V132.5H459.137V132ZM459.137 59.2727V58.7727H458.637V59.2727H459.137ZM474.265 59.2727H474.765V58.7727H474.265V59.2727ZM474.265 86.6165H473.765V87.1165H474.265V86.6165ZM474.727 86.6165V87.1165H475.05L475.183 86.8223L474.727 86.6165ZM477.603 82.142L477.219 81.8225L477.218 81.8231L477.603 82.142ZM482.575 78.3068L482.799 78.754L482.801 78.753L482.575 78.3068ZM501.254 79.8693L500.991 80.2943L500.993 80.2957L501.254 79.8693ZM509.315 89.2088L508.865 89.4263L508.865 89.4273L509.315 89.2088ZM509.386 120.21L508.933 119.998L508.933 119.999L509.386 120.21ZM501.431 129.692L501.7 130.113L501.701 130.113L501.431 129.692ZM482.717 131.432L482.502 131.883L482.504 131.884L482.717 131.432ZM477.71 127.774L477.333 128.103L477.336 128.106L477.71 127.774ZM474.727 123.264L475.182 123.058L475.049 122.764H474.727V123.264ZM474.052 123.264V122.764H473.552V123.264H474.052ZM474.052 132V132.5H474.552V132H474.052ZM479.201 118.861L478.891 119.253L478.894 119.255L479.201 118.861ZM491.666 118.825L491.976 119.217L491.98 119.215L491.666 118.825ZM495.537 113.143L495.067 112.97L495.067 112.973L495.537 113.143ZM495.572 96.4176L496.042 96.2456L496.042 96.2456L495.572 96.4176ZM491.701 90.8068L492.012 90.4148L492.012 90.4148L491.701 90.8068ZM479.166 90.7358L478.862 90.3384L478.86 90.3405L479.166 90.7358ZM475.295 96.2756L474.827 96.0995L474.827 96.0995L475.295 96.2756ZM459.637 132V59.2727H458.637V132H459.637ZM459.137 59.7727H474.265V58.7727H459.137V59.7727ZM473.765 59.2727V86.6165H474.765V59.2727H473.765ZM474.265 87.1165H474.727V86.1165H474.265V87.1165ZM475.183 86.8223C475.824 85.403 476.756 83.949 477.988 82.461L477.218 81.8231C475.941 83.3654 474.956 84.8944 474.271 86.4107L475.183 86.8223ZM477.988 82.4616C479.216 80.9828 480.816 79.7453 482.799 78.754L482.351 77.8596C480.262 78.9043 478.547 80.2236 477.219 81.8225L477.988 82.4616ZM482.801 78.753C484.771 77.7563 487.246 77.2443 490.245 77.2443V76.2443C487.137 76.2443 484.498 76.774 482.349 77.8606L482.801 78.753ZM490.245 77.2443C494.13 77.2443 497.708 78.2603 500.991 80.2943L501.517 79.4443C498.076 77.3117 494.315 76.2443 490.245 76.2443V77.2443ZM500.993 80.2957C504.259 82.2971 506.887 85.3306 508.865 89.4263L509.765 88.9914C507.719 84.7536 504.972 81.5609 501.515 79.443L500.993 80.2957ZM508.865 89.4273C510.835 93.4824 511.833 98.5984 511.833 104.798H512.833C512.833 98.4982 511.82 93.2212 509.765 88.9904L508.865 89.4273ZM511.833 104.798C511.833 110.831 510.859 115.891 508.933 119.998L509.839 120.423C511.843 116.148 512.833 110.934 512.833 104.798H511.833ZM508.933 119.999C507.025 124.093 504.432 127.175 501.162 129.271L501.701 130.113C505.154 127.9 507.864 124.661 509.839 120.421L508.933 119.999ZM501.162 129.27C497.909 131.347 494.262 132.388 490.21 132.388V133.388C494.444 133.388 498.278 132.298 501.7 130.113L501.162 129.27ZM490.21 132.388C487.327 132.388 484.907 131.911 482.93 130.98L482.504 131.884C484.647 132.894 487.221 133.388 490.21 133.388V132.388ZM482.932 130.98C480.948 130.034 479.335 128.853 478.084 127.442L477.336 128.106C478.688 129.631 480.414 130.888 482.502 131.883L482.932 130.98ZM478.087 127.445C476.811 125.984 475.845 124.521 475.182 123.058L474.271 123.471C474.982 125.038 476.005 126.582 477.333 128.103L478.087 127.445ZM474.727 122.764H474.052V123.764H474.727V122.764ZM473.552 123.264V132H474.552V123.264H473.552ZM474.052 131.5H459.137V132.5H474.052V131.5ZM473.446 104.727C473.446 108.015 473.902 110.906 474.827 113.389L475.764 113.04C474.889 110.693 474.446 107.926 474.446 104.727H473.446ZM474.827 113.389C475.752 115.873 477.103 117.837 478.891 119.253L479.512 118.469C477.891 117.186 476.637 115.385 475.764 113.04L474.827 113.389ZM478.894 119.255C480.698 120.658 482.881 121.349 485.416 121.349V120.349C483.073 120.349 481.114 119.715 479.508 118.466L478.894 119.255ZM485.416 121.349C487.975 121.349 490.172 120.646 491.976 119.217L491.355 118.433C489.751 119.704 487.781 120.349 485.416 120.349V121.349ZM491.98 119.215C493.767 117.775 495.105 115.8 496.007 113.314L495.067 112.973C494.216 115.317 492.974 117.129 491.352 118.436L491.98 119.215ZM496.006 113.317C496.93 110.812 497.386 107.946 497.386 104.727H496.386C496.386 107.853 495.943 110.598 495.067 112.97L496.006 113.317ZM497.386 104.727C497.386 101.533 496.942 98.7031 496.042 96.2456L495.103 96.5896C495.954 98.9143 496.386 101.624 496.386 104.727H497.386ZM496.042 96.2456C495.139 93.783 493.8 91.8307 492.012 90.4148L491.391 91.1988C493.012 92.4818 494.253 94.2701 495.103 96.5896L496.042 96.2456ZM492.012 90.4148C490.206 88.9856 487.997 88.2827 485.416 88.2827V89.2827C487.806 89.2827 489.787 89.9292 491.391 91.1988L492.012 90.4148ZM485.416 88.2827C482.861 88.2827 480.667 88.9602 478.862 90.3385L479.469 91.1331C481.074 89.9072 483.046 89.2827 485.416 89.2827V88.2827ZM478.86 90.3405C477.092 91.7098 475.753 93.6393 474.827 96.0995L475.763 96.4516C476.637 94.1296 477.878 92.366 479.472 91.1311L478.86 90.3405ZM474.827 96.0995C473.901 98.5598 473.446 101.439 473.446 104.727H474.446C474.446 101.529 474.889 98.7736 475.763 96.4516L474.827 96.0995Z" fill="white" mask="url(#path-3-outside-2_2_55)"/>
<path d="M69.936 21.4025C77.6609 9.58223 93.5663 6.22278 105.462 13.899C117.357 21.5751 120.738 37.3801 113.013 49.2004L85.0384 92.0055L41.9616 64.2075L69.936 21.4025Z" fill="#006EBE"/>
<path d="M41.9616 64.2075L85.0384 92.0055L57.064 134.81C49.3391 146.631 33.4337 149.99 21.5384 142.314C9.64309 134.638 6.2623 118.833 13.9872 107.013L41.9616 64.2075Z" fill="#EB2026"/>
<path d="M83.6511 92.3003L56.2238 134.268C48.8023 145.624 33.5188 148.855 22.0855 141.477C10.6522 134.099 7.40601 118.911 14.8275 107.555L42.2548 65.5869L83.6511 92.3003ZM84.7452 90.6262L43.3489 63.9127L70.7763 21.9447C78.1977 10.5888 93.4812 7.35801 104.915 14.736C116.348 22.1141 119.594 37.3023 112.173 48.6582L84.7452 90.6262Z" stroke="white" stroke-width="2"/>
<path d="M57 116L52 123.5L48 129L46.5003 130.8C45.8351 131.598 45.0912 132.327 44.2798 132.976L44.0826 133.134C43.3629 133.71 42.5821 134.209 41.7578 134.621V134.621C40.5946 135.203 39.3478 135.609 38.065 135.822V135.822C37.3562 135.941 36.6389 136 35.9203 136H35.5838C34.863 136 34.144 135.929 33.4373 135.787V135.787C32.4833 135.597 31.5591 135.28 30.689 134.845L29.5 134.25L28.3792 133.529C26.7976 132.513 25.3295 131.33 24 130V130" stroke="white" stroke-width="4" stroke-linecap="round"/>
</svg>
